<svg xmlns="http://www.w3.org/2000/svg" version="1.1" xmlns:xlink="http://www.w3.org/1999/xlink" xmlns:svgjs="http://svgjs.dev/svgjs" width="2000" height="575" viewBox="0 0 2000 575"><g transform="matrix(1,0,0,1,-1.2121212121212466,0.3454491808806779)"><svg viewBox="0 0 396 114" data-background-color="#000000" preserveAspectRatio="xMidYMid meet" height="575" width="2000" xmlns="http://www.w3.org/2000/svg" xmlns:xlink="http://www.w3.org/1999/xlink"><g id="tight-bounds" transform="matrix(1,0,0,1,0.2400000000000091,-0.06848905499199986)"><svg viewBox="0 0 395.52 114.13697810998397" height="114.13697810998397" width="395.52"><g><svg viewBox="0 0 395.52000000000004 114.13697810998399" height="114.13697810998397" width="395.52"><g><svg viewBox="0 0 395.52000000000004 114.13697810998399" height="114.13697810998399" width="395.52000000000004"><g id="textblocktransform"><svg viewBox="0 0 395.52000000000004 114.13697810998399" height="114.13697810998399" width="395.52000000000004" id="textblock"><g><svg viewBox="0 0 395.52000000000004 114.13697810998399" height="114.13697810998399" width="395.52000000000004"><g transform="matrix(1,0,0,1,0,0)"><svg width="395.52000000000004" viewBox="1.51 -37.7 182.9 52.790000000000006" height="114.13697810998399" data-palette-color="url(#111c0c49-31e8-49e3-94c0-f24f7ac8f688)"></svg></g></svg></g></svg></g></svg></g></svg></g><defs></defs><mask id="17170497-5fdc-4baa-98ce-4ba91ec510b5"><g id="SvgjsG1031"><svg viewBox="0 0 395.52 114.13697810998397" height="114.13697810998397" width="395.52"><g><svg viewBox="0 0 395.52000000000004 114.13697810998399" height="114.13697810998397" width="395.52"><g><svg viewBox="0 0 395.52000000000004 114.13697810998399" height="114.13697810998399" width="395.52000000000004"><g id="SvgjsG1030"><svg viewBox="0 0 395.52000000000004 114.13697810998399" height="114.13697810998399" width="395.52000000000004" id="SvgjsSvg1029"><g><svg viewBox="0 0 395.52000000000004 114.13697810998399" height="114.13697810998399" width="395.52000000000004"><g transform="matrix(1,0,0,1,0,0)"><svg width="395.52000000000004" viewBox="1.51 -37.7 182.9 52.790000000000006" height="114.13697810998399" data-palette-color="url(#111c0c49-31e8-49e3-94c0-f24f7ac8f688)"><path d="M26.61-21.97L26.61-21.97Q26.61-17.68 24.85-13.7 23.1-9.72 20.14-6.64 17.19-3.56 13.26-1.73 9.33 0.1 4.98 0.1L4.98 0.1 4.88 0.1Q4 0.1 3.44-0.71 2.88-1.51 2.49-2.73 2.1-3.96 1.9-5.47 1.71-6.98 1.61-8.42 1.51-9.86 1.51-11.01 1.51-12.16 1.51-12.74L1.51-12.74Q1.51-14.4 1.56-16.04 1.61-17.68 1.71-19.34L1.71-19.34Q1.71-19.87 1.78-20.92 1.86-21.97 1.95-23.29 2.05-24.61 2.2-26.05 2.34-27.49 2.51-28.74 2.69-29.98 2.86-30.93 3.03-31.88 3.27-32.23L3.27-32.23Q3.91-33.3 5.22-34.13 6.54-34.96 8.08-35.5 9.62-36.04 11.21-36.3 12.79-36.57 13.96-36.57L13.96-36.57Q17.19-36.57 19.56-35.38 21.92-34.18 23.51-32.15 25.1-30.13 25.85-27.49 26.61-24.85 26.61-21.97ZM18.41-20.56L18.41-20.56Q18.41-21.63 18.02-22.75 17.63-23.88 16.92-24.8 16.21-25.73 15.21-26.29 14.21-26.86 12.99-26.86L12.99-26.86Q11.96-26.86 10.89-26.37L10.89-26.37Q10.64-26.22 10.45-25.46 10.25-24.71 10.13-23.63 10.01-22.56 9.91-21.29 9.81-20.02 9.79-18.87 9.77-17.72 9.74-16.85 9.72-15.97 9.72-15.67L9.72-15.67Q9.72-15.19 9.72-14.23 9.72-13.28 9.79-12.35 9.86-11.43 9.96-10.74 10.06-10.06 10.3-10.06L10.3-10.06Q11.77-10.06 13.21-11.21 14.65-12.35 15.82-14.01 16.99-15.67 17.7-17.48 18.41-19.29 18.41-20.56ZM49.27-8.69L49.27-8.69Q49.27-7.03 48.22-5.44 47.17-3.86 45.58-2.61 43.99-1.37 42.19-0.61 40.38 0.15 38.86 0.15L38.86 0.15Q36.28 0.15 34.25-1.15 32.22-2.44 30.86-4.44 29.49-6.45 28.78-8.86 28.07-11.28 28.07-13.57L28.07-13.57Q28.07-16.02 28.76-18.8 29.44-21.58 30.83-23.93 32.22-26.27 34.35-27.83 36.47-29.39 39.4-29.39L39.4-29.39Q41.06-29.39 42.58-28.83 44.09-28.27 45.21-27.25 46.34-26.22 47.02-24.8 47.7-23.39 47.7-21.63L47.7-21.63Q47.7-19.34 46.73-17.33 45.75-15.33 44.14-13.87 42.53-12.4 40.43-11.5 38.33-10.6 36.13-10.5L36.13-10.5Q36.33-9.08 37.28-8.45 38.23-7.81 39.55-7.81L39.55-7.81Q40.52-7.81 41.45-8.3 42.38-8.79 43.26-9.4 44.14-10.01 44.99-10.5 45.85-10.99 46.73-10.99L46.73-10.99Q47.7-10.99 48.48-10.35 49.27-9.72 49.27-8.69ZM41.35-20.65L41.35-20.65Q41.35-21.29 41.01-21.97 40.67-22.66 39.94-22.66L39.94-22.66Q38.86-22.66 38.13-22.09 37.4-21.53 36.91-20.68 36.42-19.82 36.15-18.85 35.89-17.87 35.84-17.04L35.84-17.04Q36.52-17.19 37.47-17.43 38.43-17.68 39.28-18.09 40.13-18.51 40.74-19.14 41.35-19.78 41.35-20.65ZM74.31-16.11L74.31-16.11Q74.31-14.7 74.09-12.92 73.87-11.13 73.41-9.28 72.94-7.42 72.19-5.66 71.43-3.91 70.33-2.51 69.23-1.12 67.79-0.29 66.35 0.54 64.45 0.54L64.45 0.54Q62.45 0.54 60.81-0.39 59.17-1.32 58-2.93L58-2.93Q57.86-1.61 56.93-0.61 56 0.39 54.58 0.39L54.58 0.39Q53.75 0.39 53.19-0.44 52.63-1.27 52.29-2.56 51.95-3.86 51.78-5.42 51.61-6.98 51.56-8.45 51.51-9.91 51.51-11.08 51.51-12.26 51.51-12.74L51.51-12.74Q51.51-14.4 51.53-16.06 51.56-17.72 51.61-19.43L51.61-19.43Q51.61-20.26 51.58-21.92 51.56-23.58 51.61-25.61 51.66-27.64 51.83-29.76 52-31.88 52.44-33.64 52.88-35.4 53.66-36.52 54.44-37.65 55.66-37.7L55.66-37.7Q56.64-37.7 57.32-37.01 58-36.33 58.47-35.21 58.93-34.08 59.2-32.69 59.47-31.3 59.59-29.91 59.71-28.52 59.74-27.27 59.76-26.03 59.76-25.24L59.76-25.24Q59.76-25.1 59.74-24.58 59.71-24.07 59.71-23.49 59.71-22.9 59.71-22.44 59.71-21.97 59.71-21.92L59.71-21.92Q60.15-22.85 60.98-23.73 61.81-24.61 62.84-25.29 63.86-25.98 64.99-26.42 66.11-26.86 67.13-26.86L67.13-26.86Q69.18-26.86 70.58-25.81 71.97-24.76 72.8-23.14 73.63-21.53 73.97-19.65 74.31-17.77 74.31-16.11ZM67.13-14.65L67.13-14.65Q67.13-15.23 67.06-15.92 66.99-16.6 66.72-17.19 66.45-17.77 65.99-18.16 65.52-18.55 64.79-18.55L64.79-18.55Q64.01-18.55 63.25-18.21 62.5-17.87 61.81-17.33 61.13-16.8 60.54-16.19 59.96-15.58 59.52-14.99L59.52-14.99 59.03-10.64Q59.81-9.52 60.93-8.86 62.06-8.2 63.47-8.2L63.47-8.2Q64.55-8.2 65.25-8.89 65.96-9.57 66.38-10.57 66.79-11.57 66.96-12.7 67.13-13.82 67.13-14.65ZM98.67-13.96L98.67-13.96Q98.67-11.28 98.14-8.64 97.6-6.01 96.33-3.93 95.06-1.86 92.94-0.59 90.81 0.68 87.64 0.68L87.64 0.68Q84.51 0.68 82.41-0.56 80.31-1.81 79.07-3.86 77.82-5.91 77.31-8.5 76.8-11.08 76.8-13.77L76.8-13.77Q76.8-16.7 77.48-19.58L77.48-19.58Q77.63-20.36 78.04-21.75 78.46-23.14 79.12-24.49 79.78-25.83 80.63-26.81 81.49-27.78 82.51-27.78L82.51-27.78Q83.49-27.78 84.07-27.25 84.66-26.71 85-25.9 85.34-25.1 85.44-24.19 85.54-23.29 85.54-22.56L85.54-22.56Q85.54-21.44 85.37-20.36 85.2-19.29 85-18.21L85-18.21Q84.81-16.75 84.64-15.28 84.47-13.82 84.47-12.35L84.47-12.35Q84.47-11.62 84.54-10.72 84.61-9.81 84.9-8.98 85.2-8.15 85.73-7.59 86.27-7.03 87.25-7.03L87.25-7.03Q88.52-7.03 89.27-7.71 90.03-8.4 90.4-9.42 90.76-10.45 90.86-11.62 90.96-12.79 90.96-13.77L90.96-13.77Q90.96-15.92 90.67-17.99 90.37-20.07 90.13-22.22L90.13-22.22Q90.08-22.46 90.08-22.9L90.08-22.9Q90.08-23.63 90.32-24.37 90.57-25.1 91.01-25.68 91.45-26.27 92.08-26.64 92.72-27 93.5-27L93.5-27Q94.57-27 95.4-26.25 96.23-25.49 96.79-24.29 97.36-23.1 97.72-21.61 98.09-20.12 98.31-18.68 98.53-17.24 98.6-15.97 98.67-14.7 98.67-13.96ZM123.77-16.65L123.77-16.65Q123.77-14.16 123.7-11.67 123.62-9.18 123.43-6.69L123.43-6.69Q123.28-4.54 123.04-2.1 122.79 0.34 122.26 2.76 121.72 5.18 120.84 7.4 119.96 9.62 118.52 11.33 117.08 13.04 115.03 14.06 112.98 15.09 110.15 15.09L110.15 15.09Q108.83 15.09 107.19 14.67 105.56 14.26 104.12 13.48 102.68 12.7 101.67 11.55 100.67 10.4 100.67 8.89L100.67 8.89Q100.67 7.76 101.48 6.81 102.28 5.86 103.55 5.86L103.55 5.86Q104.34 5.86 105.04 6.13 105.75 6.4 106.46 6.74 107.17 7.08 107.83 7.35 108.49 7.62 109.17 7.62L109.17 7.62Q110.98 7.62 112.2 6.71 113.42 5.81 114.15 4.42 114.88 3.03 115.25 1.39 115.62-0.24 115.76-1.71L115.76-1.71Q114.78-0.59 113.49-0.17 112.2 0.24 110.78 0.24L110.78 0.24Q108.19 0.24 106.39-0.66 104.58-1.56 103.46-3.15 102.33-4.74 101.8-6.84 101.26-8.94 101.26-11.38L101.26-11.38Q101.26-12.89 101.58-14.79 101.89-16.7 102.53-18.65 103.16-20.61 104.12-22.46 105.07-24.32 106.34-25.73 107.61-27.15 109.19-28.03 110.78-28.91 112.69-28.91L112.69-28.91Q114.54-28.91 115.98-27.83 117.42-26.76 117.67-24.8L117.67-24.8Q118.2-25.83 119.08-26.83 119.96-27.83 121.23-27.83L121.23-27.83Q121.91-27.83 122.38-27.15 122.84-26.46 123.11-25.37 123.38-24.27 123.53-22.97 123.67-21.68 123.72-20.43 123.77-19.19 123.77-18.16 123.77-17.14 123.77-16.65ZM116.35-13.48L116.35-13.48Q116.35-14.21 116.13-15.38 115.91-16.55 115.49-17.63 115.08-18.7 114.44-19.48 113.81-20.26 112.93-20.26L112.93-20.26Q111.81-20.26 110.95-19.48 110.1-18.7 109.51-17.6 108.93-16.5 108.61-15.26 108.29-14.01 108.29-13.13L108.29-13.13Q108.29-12.5 108.39-11.43 108.49-10.35 108.8-9.33 109.12-8.3 109.66-7.57 110.2-6.84 111.07-6.84L111.07-6.84Q112.39-6.84 113.37-7.47 114.35-8.11 115-9.08 115.66-10.06 116.01-11.23 116.35-12.4 116.35-13.48ZM160.29-7.67L160.29-7.67Q160.29-6.74 159.8-5.86L159.8-5.86Q159.31-5.03 157.5-3.91 155.7-2.78 153.5-1.78 151.3-0.78 149.25-0.07 147.2 0.63 146.23 0.63L146.23 0.63Q145.54 0.63 144.61 0.32 143.69 0 142.76-0.49 141.83-0.98 141.07-1.61 140.32-2.25 139.98-2.83L139.98-2.83Q139.78-3.17 139.61-4.2 139.44-5.22 139.32-6.59 139.19-7.96 139.1-9.5 139-11.04 138.93-12.43 138.85-13.82 138.83-14.89 138.8-15.97 138.8-16.46L138.8-16.46Q138.8-18.26 138.93-20.61 139.05-22.95 139.39-25.32 139.73-27.69 140.39-29.86 141.05-32.03 142.17-33.54L142.17-33.54Q142.51-33.98 143.54-34.47 144.57-34.96 145.96-35.4 147.35-35.84 148.96-36.23 150.57-36.62 152.06-36.89 153.55-37.16 154.77-37.33 155.99-37.5 156.63-37.5L156.63-37.5Q157.36-37.5 158.02-37.18 158.68-36.87 159.14-36.33 159.6-35.79 159.87-35.13 160.14-34.47 160.14-33.74L160.14-33.74Q160.14-33.11 159.97-32.67 159.8-32.23 159.46-31.69L159.46-31.69Q158.97-31.05 157.41-30.18 155.84-29.3 154.01-28.44 152.18-27.59 150.5-26.9 148.81-26.22 148.13-25.93L148.13-25.93Q147.93-24.8 147.71-23.66 147.49-22.51 147.4-21.34L147.4-21.34Q148.91-22.12 150.82-22.8 152.72-23.49 154.43-23.49L154.43-23.49Q157.9-23.49 157.9-20.07L157.9-20.07Q157.9-19.24 157.58-18.6 157.26-17.97 156.75-17.48 156.24-16.99 155.58-16.63 154.92-16.26 154.28-15.92L154.28-15.92Q152.72-15.09 151.01-14.48 149.3-13.87 147.59-13.28L147.59-13.28Q147.49-12.89 147.4-12.43 147.3-11.96 147.3-11.52L147.3-11.52Q147.3-10.84 147.4-10.16 147.49-9.47 147.59-8.79L147.59-8.79Q148.18-8.98 149.47-9.42 150.77-9.86 152.18-10.3 153.6-10.74 154.92-11.06 156.24-11.38 156.87-11.38L156.87-11.38Q157.6-11.38 158.24-11.06 158.87-10.74 159.31-10.23 159.75-9.72 160.02-9.03 160.29-8.35 160.29-7.67ZM184.41-4.59L184.41-4.59Q184.41-3.61 183.6-2.88 182.8-2.15 181.55-1.56 180.3-0.98 178.72-0.59 177.13-0.2 175.59 0.05 174.05 0.29 172.69 0.42 171.32 0.54 170.49 0.54L170.49 0.54Q169.66 0.54 168.17 0.49 166.68 0.44 165.22 0.12 163.75-0.2 162.68-0.9 161.6-1.61 161.6-2.88L161.6-2.88Q161.6-3.86 162.29-5.27 162.97-6.69 164.05-8.35 165.12-10.01 166.44-11.74 167.76-13.48 169.03-15.09 170.3-16.7 171.42-18.04 172.54-19.38 173.18-20.26L173.18-20.26Q172.49-20.12 171.44-19.85 170.39-19.58 169.27-19.34 168.15-19.09 167.1-18.92 166.05-18.75 165.31-18.75L165.31-18.75Q164.73-18.75 164-18.97 163.26-19.19 162.6-19.58 161.95-19.97 161.48-20.51 161.02-21.04 161.02-21.73L161.02-21.73Q161.02-22.61 161.8-23.36 162.58-24.12 163.85-24.73 165.12-25.34 166.68-25.81 168.24-26.27 169.76-26.59 171.27-26.9 172.64-27.05 174.01-27.2 174.84-27.2L174.84-27.2Q175.76-27.2 177.08-27 178.4-26.81 179.65-26.32 180.89-25.83 181.77-25 182.65-24.17 182.65-22.9L182.65-22.9Q182.65-22.51 182.58-22.19 182.5-21.88 182.4-21.48L182.4-21.48Q182.31-21.14 181.55-19.95 180.79-18.75 179.69-17.11 178.6-15.48 177.3-13.6 176.01-11.72 174.84-10.06 173.66-8.4 172.79-7.13 171.91-5.86 171.61-5.42L171.61-5.42Q173.62-5.96 175.69-6.32 177.77-6.69 179.82-6.69L179.82-6.69Q180.3-6.69 181.09-6.64 181.87-6.59 182.6-6.37 183.33-6.15 183.87-5.74 184.41-5.32 184.41-4.59Z" opacity="1" transform="matrix(1,0,0,1,0,0)" fill="white" class="wordmark-text-0" id="SvgjsPath1028"></path></svg></g></svg></g></svg></g></svg></g></svg></g><defs><mask></mask></defs></svg><rect width="395.52" height="114.13697810998397" fill="black" stroke="none" visibility="hidden"></rect></g></mask><linearGradient x1="0" x2="1" y1="0.578" y2="0.595" id="111c0c49-31e8-49e3-94c0-f24f7ac8f688"><stop stop-color="#6ee2f5" offset="0"></stop><stop stop-color="#6454f0" offset="1"></stop></linearGradient><rect width="395.52" height="114.13697810998397" fill="url(#111c0c49-31e8-49e3-94c0-f24f7ac8f688)" mask="url(#17170497-5fdc-4baa-98ce-4ba91ec510b5)" data-fill-palette-color="primary"></rect></svg><rect width="395.52" height="114.13697810998397" fill="none" stroke="none" visibility="hidden"></rect></g></svg></g></svg>